<?xml version="1.0" encoding="utf-8"?>
<!-- Generator: Adobe Illustrator 23.0.3, SVG Export Plug-In . SVG Version: 6.00 Build 0)  -->
<svg version="1.1" id="Capa_1" xmlns="http://www.w3.org/2000/svg" xmlns:xlink="http://www.w3.org/1999/xlink" x="0px" y="0px"
	 viewBox="0 0 459.4 36.7" style="enable-background:new 0 0 459.4 36.7;" xml:space="preserve">
<style type="text/css">
	.st0{fill:#172983;}
	.st1{fill-rule:evenodd;clip-rule:evenodd;fill:#2F2482;}
	.st2{fill-rule:evenodd;clip-rule:evenodd;fill:#E2000F;}
	.st3{fill-rule:evenodd;clip-rule:evenodd;fill:#FFFFFF;}
	.st4{fill:none;stroke:#E2000F;stroke-width:2.270088e-02;stroke-miterlimit:22.9256;}
</style>
<path class="st0" d="M419.4,24.9h13.2c-0.2,0.8,0,1.4,0.6,1.8c0.7,0.4,1.8,0.6,3.2,0.6s2.7-0.2,3.5-0.6c0.9-0.3,1.5-0.9,1.8-1.6
	c0.2-0.6,0.2-1.1-0.3-1.5s-1.3-0.6-2.6-0.8l-7.7-1c-3.2-0.4-5.3-1.3-6.4-2.7c-1.1-1.4-1.1-3.3,0-5.6c1.4-3.1,3.8-5.4,7-6.9
	s7.7-2.1,13.3-2.1c5.9,0,9.9,0.7,12.2,2.1c2.2,1.5,2.7,3.7,1.7,6.7h-12.7c0.2-0.9,0-1.6-0.7-1.9c-0.7-0.5-1.9-0.7-3.6-0.7
	c-1.3,0-2.2,0.2-3.1,0.6c-0.9,0.3-1.4,0.8-1.7,1.4c-0.2,0.6-0.2,0.9,0.2,1.3c0.4,0.3,1.5,0.6,3,0.8l9.3,1.4c2.9,0.5,4.9,1.4,5.7,2.7
	c0.9,1.4,0.9,3.2-0.2,5.5c-1.6,3.4-4.2,5.9-8.1,7.6s-9,2.4-15.7,2.4c-5.3,0-8.9-0.9-11-2.4C418.6,30.2,418.2,27.9,419.4,24.9z
	 M376.7,33.4l12.6-28.2h13l3.6,16.1l7.3-16.2h10.6l-12.5,28.2H399l-4.5-16.5l-7.4,16.5L376.7,33.4L376.7,33.4z M337.3,33.4
	l24.9-28.2H376l-1.3,28.2h-11.9l0.3-2.7H351l-2.2,2.7H337.3z M357,23.7h7l1.1-9.9L357,23.7z M307.2,33.4l12.6-28.2h30l-3.1,6.9h-19
	l-1.6,3.4h15.4l-3.1,7H323l-1.7,3.7h20l-3.2,7.3L307.2,33.4L307.2,33.4L307.2,33.4z M278.5,21.4h11l-0.2,0.4c-0.8,1.7-1.1,3-0.9,3.8
	c0.2,0.9,0.9,1.3,1.9,1.3c1.3,0,2.3-0.4,3.2-1.2c0.9-0.8,1.8-2.3,2.9-4.8l7-15.7h11l-6.5,14.5c-1.5,3.3-2.7,5.5-3.5,7
	c-0.9,1.3-1.9,2.4-3.1,3.4c-1.7,1.4-3.6,2.3-5.9,3.1c-2.3,0.7-4.9,1-7.8,1c-5.3,0-8.8-0.9-10.2-2.7c-1.6-1.8-1.4-4.8,0.5-8.9
	L278.5,21.4z M128.9,33.4l24.9-28.2h13.8l-1.3,28.2h-11.9l0.3-2.7h-12.1l-2.2,2.7H128.9z M148.5,23.7h7l1.1-9.9L148.5,23.7z
	 M123.7,17.1c0.6-1.8,0.6-3.1-0.1-4c-0.6-0.9-1.9-1.4-3.8-1.4c-2.3,0-4.5,0.7-6.2,1.9c-1.8,1.3-3.3,3.2-4.4,5.6
	c-1.1,2.4-1.3,4.4-0.7,5.5c0.7,1.3,2.1,1.9,4.5,1.9c1.7,0,3.2-0.4,4.6-1.2c1.4-0.8,2.6-1.9,3.6-3.4h12.6c-2.3,3.9-5.5,6.9-9.5,8.9
	c-4.1,1.9-8.9,3-14.5,3c-6.2,0-10.4-1.3-12.5-3.8c-2-2.5-1.9-6.2,0.2-11.1c2.2-4.9,5.4-8.7,9.7-11.1c4.3-2.5,9.5-3.8,15.9-3.8
	c5.8,0,9.9,1.1,12.2,3.2c2.2,2.1,2.5,5.3,0.9,9.3L123.7,17.1L123.7,17.1L123.7,17.1z M75.8,33.4L88.4,5.2h11L86.8,33.4H75.8z
	 M35.2,33.4L47.8,5.2h12.9l3.6,16.2l7.3-16.2h10.7L69.7,33.4H57.4l-4.5-16.5l-7.4,16.5H35.2z M19.4,5.2L13.2,19
	c-1.3,2.8-1.7,4.9-1.4,5.9c0.4,1.1,1.7,1.7,3.7,1.7c2.1,0,3.8-0.6,5.2-1.7c1.3-1.1,2.7-3.1,3.9-5.9l6.2-13.8h11l-6.6,14.9
	C33,25,30,28.6,26.4,30.9c-3.7,2.3-8.5,3.4-14.2,3.4s-9.4-1.2-11.1-3.4c-1.7-2.3-1.4-5.9,0.8-10.7L8.5,5.3L19.4,5.2
	C19.4,5.3,19.4,5.2,19.4,5.2z"/>
<rect x="194.6" class="st1" width="61.1" height="36.7"/>
<rect x="197.9" y="3.5" class="st2" width="54.4" height="29.8"/>
<path class="st3" d="M245.2,29.9h1.8c0,0.1,0,0.2,0.1,0.2c0.1,0.1,0.2,0.1,0.4,0.1c0.2,0,0.4,0,0.5-0.1c0.1,0,0.2-0.1,0.2-0.2
	s0-0.1,0-0.2c-0.1,0-0.2-0.1-0.4-0.1l-1.1-0.1c-0.4-0.1-0.7-0.2-0.9-0.4c-0.1-0.2-0.1-0.5,0-0.8c0.2-0.4,0.5-0.7,1-0.9
	c0.4-0.2,1.1-0.3,1.8-0.3c0.8,0,1.4,0.1,1.7,0.3c0.3,0.2,0.4,0.5,0.2,0.9h-1.7c0-0.1,0-0.2-0.1-0.3c-0.1-0.1-0.3-0.1-0.5-0.1
	s-0.3,0-0.4,0.1c-0.1,0-0.2,0.1-0.2,0.2s0,0.1,0,0.2c0.1,0,0.2,0.1,0.4,0.1l1.3,0.2c0.4,0.1,0.7,0.2,0.8,0.4c0.1,0.2,0.1,0.4,0,0.8
	c-0.2,0.5-0.6,0.8-1.1,1s-1.2,0.3-2.1,0.3c-0.7,0-1.2-0.1-1.5-0.3C245,30.6,245,30.3,245.2,29.9z M239.3,31.1l1.7-3.9h1.8l0.5,2.2
	l1-2.2h1.5l-1.7,3.9h-1.7l-0.6-2.3l-1,2.3H239.3z M233.9,31.1l3.4-3.9h1.9l-0.2,3.9h-1.6v-0.4h-1.6l-0.3,0.4H233.9z M236.6,29.7h1
	l0.1-1.4L236.6,29.7z M229.8,31.1l1.7-3.9h4.1l-0.4,1h-2.6l-0.2,0.5h2.1l-0.4,1H232l-0.2,0.5h2.7l-0.4,1h-4.3V31.1z M225.8,29.4h1.5
	v0.1c-0.1,0.2-0.1,0.4-0.1,0.5s0.1,0.2,0.3,0.2c0.2,0,0.3-0.1,0.4-0.2s0.2-0.3,0.4-0.6l1-2.1h1.5l-0.9,2c-0.2,0.5-0.4,0.8-0.5,1
	s-0.3,0.3-0.4,0.5c-0.2,0.2-0.5,0.3-0.8,0.4s-0.7,0.1-1.1,0.1c-0.7,0-1.2-0.1-1.4-0.4c-0.2-0.2-0.2-0.7,0.1-1.2V29.4z M217.4,31.1
	l3.4-3.9h1.9l-0.2,3.9h-1.6v-0.4h-1.6l-0.3,0.4H217.4z M220.1,29.7h1l0.1-1.4L220.1,29.7z M216.7,28.8c0.1-0.2,0.1-0.4,0-0.5
	s-0.3-0.2-0.5-0.2c-0.3,0-0.6,0.1-0.9,0.3c-0.3,0.2-0.5,0.4-0.6,0.8c-0.2,0.3-0.2,0.6-0.1,0.8c0.1,0.2,0.3,0.3,0.6,0.3
	c0.2,0,0.4-0.1,0.6-0.2s0.4-0.3,0.5-0.5h1.7c-0.3,0.5-0.8,0.9-1.3,1.2c-0.6,0.3-1.2,0.4-2,0.4c-0.9,0-1.4-0.2-1.7-0.5
	c-0.3-0.3-0.3-0.9,0-1.5c0.3-0.7,0.7-1.2,1.3-1.5c0.6-0.3,1.3-0.5,2.2-0.5c0.8,0,1.4,0.1,1.7,0.4c0.3,0.3,0.3,0.7,0.1,1.3
	L216.7,28.8L216.7,28.8z M210.2,31.1l1.7-3.9h1.5l-1.7,3.9H210.2z M204.6,31.1l1.7-3.9h1.8l0.5,2.2l1-2.2h1.5l-1.7,3.9h-1.7
	l-0.6-2.3l-1,2.3H204.6z M202.4,27.2l-0.8,1.9c-0.2,0.4-0.2,0.7-0.2,0.8c0,0.2,0.2,0.2,0.5,0.2s0.5-0.1,0.7-0.2
	c0.2-0.2,0.4-0.4,0.5-0.8l0.8-1.9h1.5l-0.9,2c-0.3,0.7-0.7,1.2-1.2,1.5s-1.2,0.5-1.9,0.5c-0.8,0-1.3-0.2-1.5-0.5s-0.2-0.8,0.1-1.5
	l0.9-2H202.4z"/>
<path class="st4" d="M245.2,29.9h1.8c0,0.1,0,0.2,0.1,0.2c0.1,0.1,0.2,0.1,0.4,0.1c0.2,0,0.4,0,0.5-0.1c0.1,0,0.2-0.1,0.2-0.2
	s0-0.1,0-0.2c-0.1,0-0.2-0.1-0.4-0.1l-1.1-0.1c-0.4-0.1-0.7-0.2-0.9-0.4c-0.1-0.2-0.1-0.5,0-0.8c0.2-0.4,0.5-0.7,1-0.9
	c0.4-0.2,1.1-0.3,1.8-0.3c0.8,0,1.4,0.1,1.7,0.3c0.3,0.2,0.4,0.5,0.2,0.9h-1.7c0-0.1,0-0.2-0.1-0.3c-0.1-0.1-0.3-0.1-0.5-0.1
	s-0.3,0-0.4,0.1c-0.1,0-0.2,0.1-0.2,0.2s0,0.1,0,0.2c0.1,0,0.2,0.1,0.4,0.1l1.3,0.2c0.4,0.1,0.7,0.2,0.8,0.4c0.1,0.2,0.1,0.4,0,0.8
	c-0.2,0.5-0.6,0.8-1.1,1s-1.2,0.3-2.1,0.3c-0.7,0-1.2-0.1-1.5-0.3C245,30.6,245,30.3,245.2,29.9z M239.3,31.1l1.7-3.9h1.8l0.5,2.2
	l1-2.2h1.5l-1.7,3.9h-1.7l-0.6-2.3l-1,2.3H239.3z M233.9,31.1l3.4-3.9h1.9l-0.2,3.9h-1.6v-0.4h-1.6l-0.3,0.4H233.9z M236.6,29.7h1
	l0.1-1.4L236.6,29.7z M229.8,31.1l1.7-3.9h4.1l-0.4,1h-2.6l-0.2,0.5h2.1l-0.4,1H232l-0.2,0.5h2.7l-0.4,1h-4.3V31.1z M225.8,29.4h1.5
	v0.1c-0.1,0.2-0.1,0.4-0.1,0.5s0.1,0.2,0.3,0.2c0.2,0,0.3-0.1,0.4-0.2s0.2-0.3,0.4-0.6l1-2.1h1.5l-0.9,2c-0.2,0.5-0.4,0.8-0.5,1
	s-0.3,0.3-0.4,0.5c-0.2,0.2-0.5,0.3-0.8,0.4s-0.7,0.1-1.1,0.1c-0.7,0-1.2-0.1-1.4-0.4c-0.2-0.2-0.2-0.7,0.1-1.2V29.4z M217.4,31.1
	l3.4-3.9h1.9l-0.2,3.9h-1.6v-0.4h-1.6l-0.3,0.4H217.4z M220.1,29.7h1l0.1-1.4L220.1,29.7z M216.7,28.8c0.1-0.2,0.1-0.4,0-0.5
	s-0.3-0.2-0.5-0.2c-0.3,0-0.6,0.1-0.9,0.3c-0.3,0.2-0.5,0.4-0.6,0.8c-0.2,0.3-0.2,0.6-0.1,0.8c0.1,0.2,0.3,0.3,0.6,0.3
	c0.2,0,0.4-0.1,0.6-0.2s0.4-0.3,0.5-0.5h1.7c-0.3,0.5-0.8,0.9-1.3,1.2c-0.6,0.3-1.2,0.4-2,0.4c-0.9,0-1.4-0.2-1.7-0.5
	c-0.3-0.3-0.3-0.9,0-1.5c0.3-0.7,0.7-1.2,1.3-1.5c0.6-0.3,1.3-0.5,2.2-0.5c0.8,0,1.4,0.1,1.7,0.4c0.3,0.3,0.3,0.7,0.1,1.3
	L216.7,28.8L216.7,28.8z M210.2,31.1l1.7-3.9h1.5l-1.7,3.9H210.2z M204.6,31.1l1.7-3.9h1.8l0.5,2.2l1-2.2h1.5l-1.7,3.9h-1.7
	l-0.6-2.3l-1,2.3H204.6z M202.4,27.2l-0.8,1.9c-0.2,0.4-0.2,0.7-0.2,0.8c0,0.2,0.2,0.2,0.5,0.2s0.5-0.1,0.7-0.2
	c0.2-0.2,0.4-0.4,0.5-0.8l0.8-1.9h1.5l-0.9,2c-0.3,0.7-0.7,1.2-1.2,1.5s-1.2,0.5-1.9,0.5c-0.8,0-1.3-0.2-1.5-0.5s-0.2-0.8,0.1-1.5
	l0.9-2H202.4z"/>
<polygon class="st3" points="199.4,9.3 211.3,9.3 208.7,12 208.7,12 208.7,12 199.4,12 199.4,12 199.4,12 199.4,9.3 "/>
<path class="st3" d="M199.4,13.3h7.8l0,0l0,0l-2.2,2.3c0.5,0.8,0.6,1.3,0,1.5c-0.7,0.2-1.1-0.5-0.7-1.1h-4.9l0,0l0,0L199.4,13.3
	L199.4,13.3L199.4,13.3z"/>
<path class="st3" d="M208.9,16.2c0.3,0,0.6,0.3,0.6,0.6s-0.3,0.6-0.6,0.6c-0.3,0-0.6-0.3-0.6-0.6S208.6,16.2,208.9,16.2 M210.5,17.3
	l0.3,0.3c0.3,0.4,1,0.5,1.7,0.2h0.1h0.4h0.1c0.8,0.5,1.4,0.2,1.4-0.4c0.1-2.1,0.4-3.8,0.8-5.1l-4.7,4.3c0,0.1,0,0.2,0,0.3
	C210.5,17,210.5,17.2,210.5,17.3z M199.4,17.4h4.9c0.1,1,0.8,1.7,1.9,2.2l1.6-1.7c-0.1-0.1-0.2-0.2-0.2-0.3
	c-0.1-0.1-0.1-0.2-0.1-0.3l0,0c-0.1-0.2-0.1-0.3-0.1-0.5c0-0.9,0.7-1.6,1.6-1.6c0.3,0,0.5,0.1,0.8,0.2c2.6-2.5,5-4.8,6.4-6l0,0
	l-2.6-1.6h-14.1l0,0l0,0V5.1l0,0l0,0h16.7l-1.6,1.7l1.8,1.2l0.6-1.3V5.2h13.1c2.3,0,4.8,0.6,6,2.7l0,0l0,0c-2.5-2.1-6.3-1.4-9.1-0.4
	c-2.7,0.8-5.1,0.8-7.2-0.3c-0.3-0.1-0.6,0-0.9,0.2c-1.4,1.3-2.5,5-3.1,10.2c1.3,0.4,2.1,1.2,2.6,2.5h-10.1c-0.1-0.3,0-0.6,0.5-0.7
	c0.4-0.1,0.7-0.1,1-0.4l-0.4-0.5c-0.4,0-0.8,0-1.1-0.2l-1.6,1.7h-7.3L199.4,17.4L199.4,17.4z"/>
<path class="st3" d="M199.4,21.4h19.5c0.2,0.7,0.7,1.7,1.4,2.7h-20.9V21.4z"/>
<path class="st3" d="M212.1,10.2c0.3,0.1,0.5,0.3,0.7,0.5c0.1,0.2,0.1,0.4-0.3,0.3c-0.2,0.4-0.5,0.5-1,0.4c-0.3-0.1-0.4-0.4-0.3-0.7
	c-0.2,0-0.3-0.2,0-0.3C211.5,10.2,211.8,10.1,212.1,10.2"/>
<path class="st3" d="M223.7,9.3c2,0.3,3.7,0.3,6.1-0.5c4.9-1.8,7.3-0.4,9.8,3.2c-2.9-1.8-6-2-9.4-0.8
	C227.5,12.4,225.3,12.1,223.7,9.3"/>
<path class="st3" d="M227.1,13.4c2,0.3,2.9,0.3,5.3-0.5c4.9-1.8,7.8,0.2,10.6,3.2c-2.9-1.8-6-1.9-9.4-0.8
	C231,16.5,228.7,16.2,227.1,13.4"/>
<path class="st3" d="M231,17.5c2,0.3,2.9,0.3,5.3-0.5c4.9-1.8,7.8,0.2,10.6,3.2c-2.9-1.8-6-1.9-9.4-0.8
	C234.8,20.6,232.6,20.3,231,17.5"/>
<path class="st3" d="M234.4,21.3c2,0.3,3,0.3,5.3-0.5c4.9-1.8,7.7,0,10.5,3.1h-11C237.3,23.9,235.7,23.5,234.4,21.3"/>
</svg>
